<svg xmlns="http://www.w3.org/2000/svg" width="256" height="256" viewBox="0 0 100 100"><rect width="100" height="100" rx="20" fill="#f8f8fa"></rect><path fill="#221e81" d="M23.95 81.25L23.95 18.75L49.05 18.75Q57.25 18.75 62.50 20.15Q67.75 21.55 70.75 24.95Q73.75 28.35 74.90 34.45Q76.05 40.55 76.05 50.05L76.05 50.05Q76.05 59.45 74.90 65.55Q73.75 71.65 70.75 75.10Q67.75 78.55 62.50 79.90Q57.25 81.25 49.05 81.25L49.05 81.25L23.95 81.25ZM52.25 30.65L38.85 30.65L38.85 69.35L52.25 69.35Q56.65 69.35 58.35 67.90Q60.05 66.45 60.05 62.55L60.05 62.55L60.05 37.45Q60.05 33.55 58.35 32.10Q56.65 30.65 52.25 30.65L52.25 30.65Z"></path></svg>